<svg width="88" height="28" viewBox="0 0 88 28" fill="none" xmlns="http://www.w3.org/2000/svg">
<rect width="88" height="28" fill="white"/>
<path d="M32.5936 5.27859H29.126L23.2531 12.0525V5.27859H20.2623V19.582H23.2531V15.372L25.2976 13.0546L29.343 19.582H32.7669L27.4437 11.1275L32.5936 5.27859Z" fill="#253065"/>
<path d="M37.9028 17.6104C37.4986 17.6104 37.2096 17.5095 37.0361 17.3071C36.8628 17.1046 36.776 16.7511 36.776 16.2449V4.00039H33.8069V16.5701C33.8069 17.697 34.0489 18.5171 34.5332 19.0299C35.0169 19.543 35.7865 19.7993 36.8411 19.7993C37.2021 19.7993 37.567 19.7594 37.9355 19.6801C38.3041 19.6004 38.6108 19.4889 38.8565 19.3441L39.1166 17.3936C38.8707 17.466 38.6687 17.5203 38.5097 17.5561C38.3508 17.5925 38.1485 17.6104 37.9028 17.6104Z" fill="#253065"/>
<path d="M47.2432 14.5764C47.2432 15.0821 47.1782 15.519 47.0482 15.8875C46.9182 16.2558 46.7409 16.5558 46.5173 16.7869C46.2932 17.0181 46.0367 17.1876 45.7479 17.296C45.4587 17.4046 45.1628 17.4587 44.8593 17.4587C44.2091 17.4587 43.7106 17.296 43.3638 16.971C43.0172 16.6459 42.8439 16.0646 42.8439 15.2265V8.74651H39.8748V15.9416C39.8748 16.8518 40.0445 17.5925 40.3841 18.163C40.7234 18.7341 41.1822 19.1491 41.7601 19.409C42.3379 19.6693 42.9881 19.7993 43.7106 19.7993C44.5917 19.7993 45.3468 19.6291 45.9755 19.29C46.604 18.9507 47.0988 18.4197 47.46 17.6969L47.5681 19.5825H50.2123V8.74651H47.2432V14.5764Z" fill="#253065"/>
<path d="M67.5119 8.9628C66.927 8.67401 66.28 8.52941 65.5724 8.52941C65.0812 8.52941 64.5972 8.6089 64.1204 8.76765C63.6435 8.92699 63.2099 9.16522 62.82 9.48293C62.4299 9.80083 62.1189 10.198 61.8882 10.6749C61.5701 9.96725 61.0971 9.43237 60.4684 9.07119C59.8401 8.7102 59.1356 8.52941 58.3554 8.52941C57.5898 8.52941 56.8928 8.7102 56.2641 9.07119C55.6358 9.43237 55.1406 9.97434 54.7796 10.6965L54.6714 8.74601H52.0059V19.582H54.975V13.8389C54.975 13.1313 55.094 12.5602 55.3324 12.1269C55.5708 11.6935 55.8742 11.3758 56.2426 11.1734C56.6109 10.9711 56.9829 10.8698 57.3586 10.8698C57.9077 10.8698 58.359 11.0362 58.7133 11.3683C59.067 11.701 59.244 12.2644 59.244 13.0587V19.582H62.2132V13.7524C62.2132 13.1168 62.318 12.5858 62.5273 12.1593C62.7366 11.7334 63.0258 11.4118 63.3945 11.195C63.7629 10.9782 64.1636 10.8698 64.5972 10.8698C65.1459 10.8698 65.594 11.0362 65.9408 11.3683C66.2875 11.701 66.4608 12.2644 66.4608 13.0587V19.582H69.4084L69.4299 12.4737C69.4441 11.578 69.2745 10.8411 68.9206 10.2631C68.5665 9.68536 68.0971 9.25198 67.5119 8.9628Z" fill="#253065"/>
<path d="M78.348 16.6673C77.8932 17.2382 77.2678 17.5232 76.4734 17.5232C75.9677 17.5232 75.5233 17.3899 75.1404 17.1223C74.7574 16.8552 74.4651 16.4688 74.2631 15.963C74.0602 15.4573 73.9597 14.8577 73.9597 14.1642C73.9597 13.4564 74.0679 12.8531 74.2845 12.3546C74.5011 11.8561 74.8011 11.4735 75.1839 11.2059C75.5667 10.9388 76.0107 10.805 76.5167 10.805C77.3113 10.805 77.9288 11.0904 78.3698 11.6609C78.8103 12.232 79.0308 13.0663 79.0308 14.1642C79.0308 15.2623 78.8032 16.0966 78.348 16.6673ZM81.4037 11.1194C81.0063 10.2886 80.461 9.64927 79.7675 9.20133C79.0741 8.75359 78.2864 8.52952 77.4053 8.52952C76.726 8.52952 76.1121 8.67018 75.5632 8.95208C75.014 9.23378 74.5627 9.62035 74.2088 10.1116C74.038 10.3482 73.8948 10.6026 73.7764 10.8727L73.6562 8.74612H70.9906V24.1333H73.9597V17.695C74.2039 18.1925 74.5351 18.6296 74.9673 18.9971C75.5957 19.5316 76.3867 19.7989 77.3402 19.7989C78.2361 19.7989 79.034 19.5751 79.7349 19.1271C80.4356 18.6794 80.9884 18.0326 81.393 17.1872C81.7973 16.3421 81.9999 15.3272 81.9999 14.1426C81.9999 12.9579 81.8011 11.9501 81.4037 11.1194Z" fill="#253065"/>
<path d="M11.9386 15.0073L7.94373 14.0678C7.96045 13.9889 7.97993 13.9114 8.00196 13.8327C8.3057 12.747 8.97514 11.8617 9.84367 11.2749L11.9386 15.0073Z" fill="#5278C4"/>
<path d="M16.9028 16.3733C16.2271 18.8016 13.6913 20.227 11.2266 19.5641C9.03473 18.9735 7.65454 16.9058 7.84457 14.7074L12.5075 15.8045C12.5321 15.8097 12.5566 15.8124 12.5812 15.8124C12.6808 15.8124 12.7776 15.7658 12.8395 15.6845C12.9159 15.5809 12.9249 15.4426 12.8627 15.3316L10.4033 10.9502C11.3804 10.4708 12.5334 10.3325 13.673 10.6414C16.1547 11.3134 17.5982 13.8737 16.9028 16.3733Z" fill="#5278C4"/>
<path d="M6.97212 14.5029C6.35835 16.2876 4.46352 17.3125 2.63342 16.7994C0.758268 16.2748 -0.367571 14.3323 0.109479 12.444C0.594005 10.5197 2.56516 9.36668 4.49972 9.87737C4.90949 9.98576 5.28287 10.1551 5.61257 10.3735L3.21513 13.1315C3.14018 13.2169 3.11677 13.3357 3.1504 13.4432C3.18542 13.5502 3.27453 13.633 3.3845 13.6588L6.97212 14.5029Z" fill="#74D2E7"/>
<path d="M7.12978 13.8765L4.05383 13.1527L6.11528 10.7812C6.92027 11.5605 7.31843 12.6965 7.12978 13.8765Z" fill="#74D2E7"/>
<path d="M9.39924 10.484C8.82914 10.7424 8.17799 10.8225 7.54986 10.6596C7.20481 10.5705 6.88927 10.4127 6.61426 10.206L8.21164 8.36821L9.39924 10.484Z" fill="#68C985"/>
<path d="M10.9926 8.62419C10.8376 9.24976 10.4564 9.78092 9.95609 10.1543L8.54993 7.65101C8.49839 7.56052 8.40652 7.49855 8.30206 7.48812C8.19603 7.47789 8.09373 7.51921 8.02527 7.5981L6.14619 9.76026C5.56605 9.07134 5.3113 8.11232 5.55936 7.19993C5.96264 5.71114 7.54842 4.81546 9.02816 5.23939C10.464 5.65172 11.352 7.1832 10.9926 8.62419Z" fill="#68C985"/>
</svg>
